<svg width="20" height="20" viewBox="0 0 20 20" fill="none" xmlns="http://www.w3.org/2000/svg">
<path fill-rule="evenodd" clip-rule="evenodd" d="M12.2037 5.67541L7.44031 8.05726C6.80316 7.07633 5.69798 6.42728 4.44235 6.42728C2.47057 6.42728 0.869568 8.02829 0.869568 10.0001C0.869568 11.9718 2.47057 13.5728 4.44235 13.5728C5.69798 13.5728 6.80316 12.9238 7.44031 11.9428L12.2037 14.3248C12.0623 14.7094 11.9849 15.1246 11.9849 15.5577C11.9849 17.5295 13.5859 19.1305 15.5577 19.1305C17.5294 19.1305 19.1304 17.5295 19.1304 15.5577C19.1304 13.586 17.5294 11.9849 15.5577 11.9849C14.302 11.9849 13.1969 12.634 12.5597 13.6149L7.79639 11.2331C7.93772 10.8484 8.01512 10.4332 8.01512 10.0001C8.01512 9.56693 7.93772 9.15172 7.79639 8.76702L12.5597 6.38521C13.1969 7.36613 14.302 8.01519 15.5577 8.01519C17.5294 8.01519 19.1304 6.41419 19.1304 4.44241C19.1304 2.47063 17.5294 0.869629 15.5577 0.869629C13.5859 0.869629 11.9849 2.47063 11.9849 4.44241C11.9849 4.87551 12.0623 5.29074 12.2037 5.67541ZM15.5577 12.7789C17.0911 12.7789 18.3365 14.0242 18.3365 15.5577C18.3365 17.0912 17.0911 18.3366 15.5577 18.3366C14.0242 18.3366 12.7789 17.0912 12.7789 15.5577C12.7789 14.0242 14.0242 12.7789 15.5577 12.7789ZM4.44235 7.22124C5.97586 7.22124 7.22118 8.46655 7.22118 10.0001C7.22118 11.5335 5.97586 12.7789 4.44235 12.7789C2.90883 12.7789 1.66352 11.5335 1.66352 10.0001C1.66352 8.46655 2.90883 7.22124 4.44235 7.22124ZM15.5577 1.66358C17.0911 1.66358 18.3365 2.90889 18.3365 4.44241C18.3365 5.97592 17.0911 7.22124 15.5577 7.22124C14.0242 7.22124 12.7789 5.97592 12.7789 4.44241C12.7789 2.90889 14.0242 1.66358 15.5577 1.66358Z" fill="white" stroke="#58595B"/>
</svg>
